<?xml version="1.0" encoding="UTF-8"?><svg id="a" xmlns="http://www.w3.org/2000/svg" viewBox="0 0 1197 154.22"><defs><style>.b{fill:#004c97;}</style></defs><path class="b" d="M825.21,103.21h8.54v-35.2c0-2.46,1.4-4.13,3.51-4.13s3.08,1.4,3.08,4.4v34.93h8.54v-35.55c0-6.6-2.73-9.85-8.09-9.85-2.76-.11-5.4,1.1-7.13,3.25v-2.37h-8.45v44.52Zm-23.94-25.88v-8.52c0-3.35,1.14-5.11,3.44-5.11s3.33,1.32,3.33,4.14v9.5h-6.77Zm14.87,11.7h-8.1v5c0,3.25-.88,4.49-3.25,4.49-2.64,0-3.52-1.5-3.52-5.72v-9.42h15.13v-14.32c.03-2.41-.48-4.81-1.49-7-1.58-3-4.84-4.31-10-4.31-8.64,0-12.15,3.34-12.15,11.35v23.77c0,8,3.6,11.37,12.15,11.37,5.36,0,8.8-1.51,10.2-4.51,.71-1.41,1.06-3.6,1.06-6.86l-.03-3.84Zm-40,3.79c0,4-1,5.8-3.52,5.8s-3.69-1.67-3.69-5.8v-23.06c0-4,1.06-5.72,3.51-5.72s3.7,1.76,3.7,5.72v23.06Zm0,17c0,3.17-1,4.49-3.16,4.49s-3.08-1.41-3.08-4.49v-2.3h-8.37v2c0,7.66,2.9,10.22,11.63,10.22s11.52-2.91,11.52-10.66V58.69h-8.19v2.52c-2.63-2.82-4.31-3.7-7.47-3.7-5.91,0-8.64,3.17-8.64,9.94v26.94c0,6.69,2.73,10,8.27,10,3.18,0,5.3-1.06,7.49-3.71v9.15Zm-32.22-15.86c0,2.9-1.14,4.4-3.43,4.4-2.9,0-3.7-1.41-3.7-6.69,0-9.15,.72-10.21,7.13-10.39v12.68Zm.09,9.24h8.45v-34.23c0-8-3.24-11.26-11.17-11.26-8.53,0-12,3.34-12,11.26v2h8.53v-3.53c0-2.55,1.06-3.87,3-3.87,2.11,0,3.16,1.5,3.16,4.67v7.21h-3.34c-2.51-.11-5,.5-7.18,1.75-3.87,2.29-4.85,5.28-4.85,15.23,0,3.7,.45,6.77,1.33,8.36,1.05,2.11,3.7,3.36,6.94,3.36,3,0,4.86-1,7.22-3.71l-.09,2.76Zm-53,0h9v-30.44h11.09v30.44h9V38.44h-9v27.11h-11.05v-27.11h-9l-.04,64.77Zm-49,0h8.54v-35.2c0-2.46,1.4-4.13,3.52-4.13s3.08,1.4,3.08,4.4v34.93h8.54v-35.55c0-6.6-2.74-9.85-8.1-9.85-2.76-.11-5.4,1.1-7.13,3.25v-2.37h-8.45v44.52Zm-16.55-56.67h8.54v-8.1h-8.54v8.1Zm0,56.67h8.54V58.69h-8.54v44.52Zm-40-38.2h4v29.6c0,6.41,1.94,8.61,7.74,8.61,1,0,1.85,0,4-.09l1-.09h1.06v-6.07c-.79,.09-1.23,.17-1.59,.17-2.64,0-3.6-1.13-3.6-4.28v-27.84h5.19v-6.33h-5.19v-12l-8.61,3.19v8.81h-4v6.32Zm-16.3-18.74h7.66v-7.83h-7.66v7.83Zm-11.44,0h7.39v-7.83h-7.39v7.83Zm12.68,47.71c0,2.9-1.15,4.4-3.44,4.4-2.9,0-3.7-1.41-3.7-6.69,0-9.15,.71-10.21,7.14-10.39v12.68Zm.06,9.23h8.45v-34.23c0-8-3.25-11.26-11.17-11.26-8.55,0-12.07,3.34-12.07,11.26v2h8.55v-3.53c0-2.55,1.05-3.87,3-3.87,2.12,0,3.18,1.5,3.18,4.67v7.21h-3.35c-2.51-.14-5.02,.44-7.21,1.68-3.89,2.29-4.85,5.28-4.85,15.23,0,3.7,.44,6.77,1.32,8.36,1,2.11,3.7,3.36,6.95,3.36,3,0,4.85-1,7.22-3.71l-.02,2.83Zm-39.43-38.2h4v29.6c0,6.41,1.93,8.61,7.74,8.61,1,0,1.85,0,4-.09l1-.09h1.06v-6.07c-.79,.09-1.24,.17-1.59,.17-2.64,0-3.61-1.13-3.61-4.28v-27.84h5.2v-6.33h-5.2v-12l-8.53,3.17v8.81h-4l-.07,6.34Zm-16.11-18.48h8.54v-8.1h-8.54v8.1Zm0,56.68h8.54V58.69h-8.54v44.52Zm-15.15-31h7.69v-5.54c0-6.43-3.07-9.16-10.64-9.16-4.22,0-6.61,.7-8.37,2.64s-2.9,5.2-2.9,8.89c0,5.81,1.41,8.1,9.07,14.43,4.13,3.44,5.18,5.29,5.18,9.16,0,4.22-1,6-3.34,6s-3.17-1.41-3.17-5.28v-4.23h-8.1v5.2c-.03,2.05,.33,4.09,1.06,6,1.23,2.55,5,4.06,10,4.06,8.46,0,11.71-3.45,11.71-12.25,0-6.86-1.31-9.07-9.32-15.85-3.7-3.07-4.67-4.75-4.67-8s1-4.93,2.91-4.93,2.89,1.5,2.89,4.75v4.11Zm-36.17,31h8.54v-30.88c0-4,1.84-6.17,5.45-6.17,.5-.01,1,.02,1.5,.09v-8.44c-3.78,.17-4.75,.61-7.3,3.43v-2.55h-8.19v44.52Zm-23.04-25.87v-8.53c0-3.35,1.15-5.11,3.43-5.11s3.35,1.32,3.35,4.14v9.5h-6.78Zm14.9,11.71h-8.09v5c0,3.25-.88,4.49-3.26,4.49-2.64,0-3.52-1.5-3.52-5.72v-9.42h15.14v-14.33c.02-2.41-.49-4.8-1.49-7-1.59-3-4.85-4.31-10-4.31-8.62,0-12.15,3.34-12.15,11.35v23.77c0,8,3.61,11.37,12.15,11.37,5.37,0,8.8-1.51,10.22-4.51,.69-1.41,1-3.6,1-6.86v-3.83Zm-57.56-30.36l9.22,44.52h10.12l9.33-44.53h-8.63l-3.52,21-.26,1.93-.36,1.85-.26,2c-.26,1.93-.8,4.84-1.41,8.44-.79-5.19-.79-5.72-1.75-12.24l-.27-1.93-3.26-21-8.95-.04Zm-15-12.15h8.54v-8.1h-8.54v8.1Zm0,56.68h8.54V58.69h-8.54v44.53Zm-31.6,0h8.54v-35.21c0-2.46,1.4-4.13,3.52-4.13s3.08,1.4,3.08,4.4v34.93h8.54v-35.55c0-6.6-2.73-9.85-8.1-9.85-2.76-.11-5.4,1.1-7.13,3.25v-2.37h-8.45v44.53Zm-8.89-64.78h-9v51.14c0,5.19-1.67,7.22-5.72,7.22s-5.54-2.11-5.54-7.22V38.44h-9v51.32c-.11,2.83,.5,5.65,1.77,8.18,2.11,3.79,7,6,13,6,9.58,0,14.43-4.77,14.43-14.18l.06-51.32Zm-61.78,64.77h8.53v-35.2c0-2.46,1.41-4.13,3.52-4.13s3.09,1.4,3.09,4.4v34.93h8.54v-35.55c0-6.6-2.73-9.85-8.1-9.85-2.76-.11-5.4,1.1-7.13,3.25v-2.37h-8.45v44.52Zm-22.17,0h8.54v-30.88c0-4,1.84-6.17,5.45-6.17,.5-.01,1,.02,1.5,.09v-8.44c-3.79,.17-4.76,.61-7.31,3.43v-2.55h-8.18v44.52Zm-23.07-25.88v-8.52c0-3.35,1.15-5.11,3.44-5.11s3.34,1.32,3.34,4.14v9.5h-6.78Zm14.87,11.7h-8.1v5c0,3.25-.88,4.49-3.26,4.49-2.63,0-3.52-1.5-3.52-5.72v-9.42h15.15v-14.32c.02-2.42-.49-4.8-1.5-7-1.58-3-4.84-4.31-10-4.31-8.63,0-12.15,3.34-12.15,11.35v23.77c0,8,3.6,11.37,12.15,11.37,5.37,0,8.8-1.51,10.21-4.51,.69-1.41,1-3.6,1-6.86l.02-3.84Zm-53.25,14.17h9v-29.65h14.45v-7.35h-14.48v-20.5h14.88v-7.22h-23.85V103.21Z"/><path class="b" d="M148.64,21.31c-2.04-2.68-4.24-5.23-6.59-7.64l-.59-.6v58.48c-.42,32.41-27.04,58.33-59.44,57.91-31.81-.42-57.49-26.1-57.91-57.91V13.04l-.59,.61c-2.35,2.41-4.55,4.95-6.59,7.63l-.07,.09v50.18c.45,36.41,30.33,65.56,66.74,65.11,35.78-.44,64.67-29.34,65.11-65.11V21.4l-.07-.09Z"/><path class="b" d="M131.73,4.69c-2.14-1.57-4.36-3-6.59-4.37l-.52-.31V71.55c-.36,23.1-19.38,41.55-42.48,41.19-22.6-.35-40.84-18.59-41.19-41.19V0l-.52,.31c-2.26,1.35-4.48,2.82-6.59,4.37l-.14,.1V71.55c.39,27.11,22.68,48.77,49.79,48.38,26.56-.38,48-21.82,48.38-48.38V4.79l-.14-.1Z"/><path class="b" d="M158.96,39.05l-.66-1.55v34.06c-.96,41.7-35.54,74.72-77.24,73.76-40.35-.93-72.83-33.42-73.76-73.76V37.44l-.66,1.55c-17.91,42.06,1.67,90.68,43.73,108.59,42.06,17.91,90.68-1.67,108.59-43.73,8.81-20.7,8.82-44.1,.03-64.8"/><path class="b" d="M71.52,58.5c-7.12,7.91-6.68,15.4-10.14,13.48s-5.76-10.81,2.89-20.34,17.25-6.83,19.35-3.48c2.1,3.35-5,2.43-12.1,10.34m11.76-20.14c-18.08,0-32.73,14.65-32.73,32.73s14.65,32.73,32.73,32.73,32.73-14.65,32.73-32.73h0c-.02-18.07-14.66-32.71-32.73-32.73"/><rect class="b" x="884.36" y="36.33" width="9.33" height="76.14"/><g><path class="b" d="M925.97,65.39c0-3.46,.78-6.21,2.33-8.26,1.55-2.05,3.67-3.08,6.37-3.08,2.16,0,3.94,.81,5.35,2.42v-11.32h5.95v31.5h-5.35l-.29-2.36c-1.48,1.85-3.38,2.77-5.7,2.77-2.61,0-4.71-1.03-6.29-3.09-1.58-2.06-2.37-4.92-2.37-8.58Zm5.93,.44c0,2.08,.36,3.68,1.09,4.79s1.78,1.66,3.16,1.66c1.83,0,3.12-.77,3.88-2.32v-8.77c-.74-1.55-2.02-2.32-3.83-2.32-2.86,0-4.29,2.32-4.29,6.96Z"/><path class="b" d="M960.43,77.06c-3.25,0-5.9-1-7.95-2.99-2.04-2-3.07-4.66-3.07-7.98v-.57c0-2.23,.43-4.22,1.29-5.98s2.08-3.11,3.66-4.06c1.58-.95,3.38-1.43,5.4-1.43,3.04,0,5.42,.96,7.17,2.87,1.74,1.91,2.62,4.63,2.62,8.14v2.42h-14.13c.19,1.45,.77,2.61,1.73,3.49,.96,.88,2.18,1.31,3.66,1.31,2.28,0,4.07-.83,5.35-2.48l2.91,3.26c-.89,1.26-2.09,2.24-3.61,2.94s-3.2,1.06-5.04,1.06Zm-.68-18.23c-1.18,0-2.13,.4-2.86,1.19-.73,.8-1.2,1.94-1.4,3.42h8.24v-.47c-.03-1.32-.38-2.34-1.07-3.06-.68-.72-1.65-1.08-2.91-1.08Z"/><path class="b" d="M992.83,65.76c0,3.42-.78,6.16-2.33,8.21-1.55,2.06-3.65,3.09-6.29,3.09-2.24,0-4.05-.78-5.43-2.34v10.46h-5.93v-30.72h5.5l.21,2.17c1.44-1.72,3.31-2.58,5.62-2.58,2.73,0,4.86,1.01,6.38,3.04s2.28,4.81,2.28,8.37v.31Zm-5.93-.43c0-2.06-.37-3.66-1.1-4.78s-1.79-1.68-3.19-1.68c-1.86,0-3.14,.71-3.83,2.13v9.08c.72,1.46,2.02,2.19,3.88,2.19,2.83,0,4.25-2.32,4.25-6.95Z"/><path class="b" d="M995.3,65.35c0-2.2,.42-4.16,1.27-5.89s2.07-3.06,3.66-4,3.44-1.42,5.55-1.42c2.99,0,5.44,.92,7.33,2.75s2.95,4.32,3.17,7.46l.04,1.52c0,3.4-.95,6.14-2.85,8.19s-4.45,3.09-7.65,3.09-5.75-1.03-7.66-3.08c-1.91-2.05-2.86-4.84-2.86-8.37v-.27Zm5.93,.42c0,2.11,.4,3.72,1.19,4.84s1.93,1.67,3.4,1.67,2.56-.55,3.36-1.65c.81-1.1,1.21-2.87,1.21-5.29,0-2.07-.4-3.67-1.21-4.81-.81-1.14-1.94-1.7-3.4-1.7s-2.57,.56-3.36,1.69c-.79,1.13-1.19,2.88-1.19,5.25Z"/><path class="b" d="M1031.55,70.52c0-.72-.36-1.3-1.08-1.71-.72-.42-1.87-.79-3.46-1.12-5.28-1.11-7.92-3.35-7.92-6.73,0-1.97,.82-3.61,2.45-4.93,1.63-1.32,3.77-1.98,6.41-1.98,2.82,0,5.07,.66,6.76,1.99,1.69,1.33,2.53,3.05,2.53,5.17h-5.93c0-.85-.27-1.55-.82-2.1s-1.4-.83-2.56-.83c-1,0-1.77,.23-2.32,.68s-.82,1.03-.82,1.72c0,.66,.31,1.19,.93,1.59,.62,.4,1.67,.75,3.15,1.05s2.72,.63,3.73,.99c3.13,1.15,4.7,3.14,4.7,5.97,0,2.02-.87,3.66-2.6,4.91s-3.98,1.88-6.73,1.88c-1.86,0-3.51-.33-4.95-.99-1.44-.66-2.57-1.57-3.39-2.73s-1.23-2.4-1.23-3.74h5.62c.05,1.05,.44,1.86,1.17,2.42s1.7,.84,2.91,.84c1.13,0,1.99-.22,2.57-.65s.87-.99,.87-1.69Z"/><path class="b" d="M1040.61,48.72c0-.89,.3-1.62,.89-2.19,.6-.57,1.41-.86,2.43-.86s1.82,.29,2.42,.86,.9,1.31,.9,2.19-.3,1.64-.91,2.21-1.41,.86-2.41,.86-1.8-.29-2.41-.86c-.61-.57-.91-1.31-.91-2.21Zm6.3,27.93h-5.95v-22.19h5.95v22.19Z"/><path class="b" d="M1058.5,49.01v5.46h3.79v4.35h-3.79v11.07c0,.82,.16,1.41,.47,1.76s.92,.53,1.8,.53c.66,0,1.24-.05,1.74-.14v4.49c-1.16,.36-2.36,.53-3.59,.53-4.16,0-6.28-2.1-6.36-6.3v-11.96h-3.24v-4.35h3.24v-5.46h5.93Z"/><path class="b" d="M1083.25,81.28h-18.68v-4.63h18.68v4.63Z"/><path class="b" d="M1092.27,56.88c1.57-1.89,3.55-2.83,5.93-2.83,4.81,0,7.25,2.8,7.32,8.39v14.21h-5.93v-14.05c0-1.27-.27-2.21-.82-2.82s-1.46-.91-2.73-.91c-1.74,0-2.99,.67-3.77,2.01v15.77h-5.93v-31.5h5.93v11.73Z"/><path class="b" d="M1122.47,76.65c-.27-.53-.47-1.2-.59-1.99-1.44,1.6-3.3,2.4-5.6,2.4-2.17,0-3.98-.63-5.4-1.89s-2.14-2.84-2.14-4.76c0-2.35,.87-4.16,2.62-5.41,1.74-1.26,4.26-1.89,7.56-1.91h2.73v-1.27c0-1.03-.26-1.85-.79-2.46s-1.36-.92-2.49-.92c-1,0-1.78,.24-2.35,.72s-.85,1.13-.85,1.97h-5.93c0-1.29,.4-2.47,1.19-3.57s1.91-1.95,3.36-2.57,3.08-.93,4.88-.93c2.73,0,4.9,.69,6.51,2.06,1.61,1.37,2.41,3.31,2.41,5.79v9.62c.01,2.11,.31,3.7,.88,4.78v.35h-5.99Zm-4.9-4.12c.88,0,1.68-.19,2.42-.58s1.29-.91,1.64-1.57v-3.81h-2.21c-2.97,0-4.55,1.03-4.74,3.08l-.02,.35c0,.74,.26,1.35,.78,1.83s1.23,.72,2.13,.72Z"/><path class="b" d="M1130.76,65.39c0-3.4,.81-6.15,2.43-8.22,1.62-2.08,3.8-3.12,6.55-3.12,2.43,0,4.33,.83,5.68,2.5l.25-2.09h5.37v21.45c0,1.94-.44,3.63-1.32,5.07-.88,1.44-2.12,2.53-3.72,3.28s-3.47,1.13-5.62,1.13c-1.63,0-3.21-.32-4.76-.97-1.54-.65-2.71-1.49-3.51-2.51l2.63-3.61c1.48,1.65,3.27,2.48,5.37,2.48,1.57,0,2.8-.42,3.67-1.26,.88-.84,1.31-2.03,1.31-3.58v-1.19c-1.37,1.54-3.17,2.32-5.39,2.32-2.67,0-4.82-1.04-6.47-3.13-1.65-2.08-2.47-4.85-2.47-8.3v-.25Zm5.93,.44c0,2.01,.4,3.59,1.21,4.73,.81,1.14,1.91,1.71,3.32,1.71,1.8,0,3.1-.68,3.88-2.03v-9.34c-.79-1.36-2.07-2.03-3.83-2.03-1.42,0-2.54,.58-3.35,1.75-.81,1.16-1.22,2.9-1.22,5.22Z"/><path class="b" d="M1165.48,77.06c-3.25,0-5.9-1-7.95-2.99-2.04-2-3.07-4.66-3.07-7.98v-.57c0-2.23,.43-4.22,1.29-5.98s2.08-3.11,3.66-4.06c1.58-.95,3.38-1.43,5.4-1.43,3.04,0,5.42,.96,7.17,2.87,1.74,1.91,2.62,4.63,2.62,8.14v2.42h-14.13c.19,1.45,.77,2.61,1.73,3.49,.96,.88,2.18,1.31,3.66,1.31,2.28,0,4.07-.83,5.35-2.48l2.91,3.26c-.89,1.26-2.09,2.24-3.61,2.94s-3.2,1.06-5.04,1.06Zm-.68-18.23c-1.18,0-2.13,.4-2.86,1.19-.73,.8-1.2,1.94-1.4,3.42h8.24v-.47c-.03-1.32-.38-2.34-1.07-3.06-.68-.72-1.65-1.08-2.91-1.08Z"/><path class="b" d="M1183.42,54.46l.18,2.56c1.59-1.98,3.71-2.97,6.38-2.97,2.35,0,4.1,.69,5.25,2.07s1.74,3.45,1.76,6.19v14.33h-5.93v-14.19c0-1.26-.27-2.17-.82-2.74s-1.46-.85-2.73-.85c-1.67,0-2.92,.71-3.75,2.13v15.65h-5.93v-22.19h5.58Z"/></g></svg>