<svg id="Ebene_1" data-name="Ebene 1" xmlns="http://www.w3.org/2000/svg" x="0px" y="0px" width="190px" height="38px" viewBox="0 0 186.36 34"><title>FernUnilogo im Fuss</title><path d="M43.74,25.24h2V18.66h3.2V17h-3.2V12.47H49v-1.6H43.74V25.24ZM55.55,22H53.76v1.11c0,.73-.2,1-.72,1s-.79-.33-.79-1.27V20.79h3.36V17.61A3.62,3.62,0,0,0,55.28,16c-.35-.66-1.07-.95-2.22-.95-1.92,0-2.7.74-2.7,2.52v5.27c0,1.78.8,2.52,2.7,2.52,1.19,0,1.95-.33,2.26-1a3.51,3.51,0,0,0,.23-1.52V22Zm-3.3-2.6V17.55c0-.74.26-1.13.77-1.13s.74.29.74.91v2.11Zm5.12,5.75h1.9V18.33c0-.9.41-1.37,1.21-1.37a2.13,2.13,0,0,1,.33,0V15.11a1.78,1.78,0,0,0-1.62.76V15.3H57.37v9.89Zm4.92,0h1.9V17.37a.81.81,0,0,1,.78-.91c.46,0,.68.31.68,1v7.76h1.89V17.3c0-1.47-.6-2.19-1.79-2.19a1.91,1.91,0,0,0-1.58.72v-.52H62.29v9.88ZM76,10.81H74V22.16c0,1.15-.37,1.6-1.27,1.6s-1.23-.47-1.23-1.6V10.81h-2V22.2A3.65,3.65,0,0,0,69.89,24a3.17,3.17,0,0,0,2.89,1.33q3.19,0,3.2-3.14V10.81Zm2,14.38h1.9V17.37a.81.81,0,0,1,.78-.91c.47,0,.68.31.68,1v7.76h1.9V17.3c0-1.47-.61-2.19-1.8-2.19a1.93,1.93,0,0,0-1.58.72v-.52H78v9.88Zm7,0h1.9V15.31H85v9.88Zm0-12.58h1.9v-1.8H85v1.8Zm3.34,2.7,2,9.88H92.6l2.07-9.88H92.75L92,20l-.06.43-.07.41-.06.43c-.06.43-.18,1.08-.32,1.88-.17-1.16-.17-1.27-.39-2.72L91,20l-.72-4.66ZM101.07,22H99.28v1.11c0,.73-.2,1-.73,1s-.78-.33-.78-1.27V20.79h3.36V17.61A3.62,3.62,0,0,0,100.8,16c-.35-.66-1.07-.95-2.23-.95-1.91,0-2.69.74-2.69,2.52v5.27c0,1.78.8,2.52,2.69,2.52,1.19,0,2-.33,2.27-1a3.51,3.51,0,0,0,.23-1.52V22Zm-3.3-2.6V17.55c0-.74.26-1.13.76-1.13s.75.29.75.91v2.11Zm5.12,5.75h1.89V18.33c0-.9.41-1.37,1.21-1.37a2,2,0,0,1,.33,0V15.11a1.8,1.8,0,0,0-1.62.76V15.3h-1.81v9.89Zm8-6.88h1.69V17.08c0-1.42-.68-2-2.36-2a2.24,2.24,0,0,0-1.85.59,2.88,2.88,0,0,0-.65,2c0,1.29.32,1.8,2,3.2.92.76,1.16,1.17,1.16,2s-.22,1.33-.75,1.33-.7-.31-.7-1.17v-.94h-1.8v1.15a3.51,3.51,0,0,0,.24,1.33c.27.57,1.11.9,2.23.9,1.87,0,2.59-.76,2.59-2.72,0-1.52-.29-2-2.07-3.51-.82-.68-1-1.05-1-1.78s.21-1.09.64-1.09.65.33.65,1.05v.92Zm3.35,6.88h1.9V15.31h-1.9v9.88Zm0-12.58h1.9v-1.8h-1.9v1.8Zm3.58,4.1h.9v6.56c0,1.43.42,1.92,1.71,1.92l.88,0,.22,0h.23V23.8l-.35,0c-.59,0-.8-.26-.8-.95V16.71h1.15V15.3h-1.15V12.65l-1.9.7v2h-.89v1.41Zm8.74,8.48h1.88v-7.6c0-1.78-.72-2.5-2.48-2.5s-2.68.74-2.68,2.5V18h1.9v-.78c0-.57.23-.86.66-.86s.71.33.71,1V19h-.75a2.9,2.9,0,0,0-1.6.37c-.86.5-1.07,1.17-1.07,3.38a4.43,4.43,0,0,0,.29,1.85,1.65,1.65,0,0,0,1.54.74,1.9,1.9,0,0,0,1.61-.82v.63Zm0-2.06c0,.65-.26,1-.77,1s-.82-.31-.82-1.48c0-2,.16-2.27,1.59-2.31v2.81Zm-2.82-10.58h1.64V10.81h-1.64v1.74Zm2.54,0H128V10.81h-1.7v1.74Zm3.61,4.16h.9v6.56c0,1.43.43,1.92,1.72,1.92l.88,0,.21,0h.24V23.8l-.35,0c-.59,0-.8-.26-.8-.95V16.71h1.15V15.3h-1.15V12.65l-1.9.7v2h-.9v1.41Zm8.89,8.48h1.89V15.31H138.8v9.88Zm0-12.58h1.89v-1.8H138.8v1.8Zm3.67,12.58h1.9V17.37a.81.81,0,0,1,.78-.91c.46,0,.68.31.68,1v7.76h1.89V17.3c0-1.47-.6-2.19-1.79-2.19a1.91,1.91,0,0,0-1.58.72v-.52h-1.88v9.88Zm10.88,0h2V18.43h2.46v6.76h2V10.81h-2v6h-2.46v-6h-2V25.19Zm11.75,0H167v-7.6c0-1.78-.73-2.5-2.48-2.5-1.9,0-2.68.74-2.68,2.5V18h1.9v-.78c0-.57.23-.86.66-.86s.7.33.7,1V19h-.74a2.9,2.9,0,0,0-1.6.37c-.86.5-1.08,1.17-1.08,3.38a4.25,4.25,0,0,0,.3,1.85,1.64,1.64,0,0,0,1.54.74,1.9,1.9,0,0,0,1.6-.82v.63Zm0-2.06c0,.65-.25,1-.76,1s-.82-.31-.82-1.48c0-2,.16-2.27,1.58-2.31v2.81Zm7.15,3.52c0,.71-.22,1-.71,1s-.68-.31-.68-1v-.5H169v.44c0,1.7.64,2.27,2.58,2.27s2.55-.65,2.55-2.36V15.31h-1.81v.56a2,2,0,0,0-1.66-.82c-1.31,0-1.92.7-1.92,2.21v6c0,1.49.61,2.21,1.84,2.21a2,2,0,0,0,1.66-.82v2Zm0-3.77c0,.9-.24,1.29-.78,1.29s-.82-.37-.82-1.29V17.77c0-.88.23-1.27.78-1.27s.82.39.82,1.27v5.11Zm8.86-.84H179.3v1.11c0,.73-.2,1-.73,1s-.78-.33-.78-1.27V20.79h3.36V17.61a3.77,3.77,0,0,0-.33-1.57c-.35-.66-1.08-.95-2.23-.95-1.91,0-2.69.74-2.69,2.52v5.27c0,1.78.8,2.52,2.69,2.52,1.19,0,1.95-.33,2.27-1a3.67,3.67,0,0,0,.23-1.52V22Zm-3.3-2.6V17.55c0-.74.26-1.13.77-1.13s.74.29.74.91v2.11Zm5.32,5.75H185V17.37a.81.81,0,0,1,.78-.91c.47,0,.69.31.69,1v7.76h1.89V17.3c0-1.47-.6-2.19-1.8-2.19a1.93,1.93,0,0,0-1.58.72v-.52h-1.87v9.88Z" transform="translate(-2 -2.42)" fill="#fff"/><path d="M34.83,7.06v11.1a14.55,14.55,0,0,1-29.1,0V7.05A19.52,19.52,0,0,1,7.19,5.37V18.16a13.1,13.1,0,0,0,26.19,0V5.37A19.55,19.55,0,0,1,34.83,7.06Z" transform="translate(-2 -2.42)" fill="#fff"/><path d="M9.47,18.16V3.39c.47-.35,1-.67,1.46-1V18.16a9.36,9.36,0,0,0,18.71,0V2.42c.5.3,1,.62,1.46,1V18.16a10.82,10.82,0,0,1-21.63,0Z" transform="translate(-2 -2.42)" fill="#fff"/><path d="M37.11,18.16V11A18.28,18.28,0,1,1,3.46,11v7.2a16.83,16.83,0,0,0,33.65,0Z" transform="translate(-2 -2.42)" fill="#fff"/><path d="M20.39,10.81A7.19,7.19,0,1,0,27.58,18,7.18,7.18,0,0,0,20.39,10.81Zm-2.58,4.4c-1.53,1.74-1.46,3.34-2.23,2.92s-1.25-2.37.63-4.46,3.77-1.46,4.25-.76S19.35,13.46,17.81,15.21Z" transform="translate(-2 -2.42)" fill="#fff"/></svg>